<svg xmlns="http://www.w3.org/2000/svg" xmlns:xlink="http://www.w3.org/1999/xlink" width="128" zoomAndPan="magnify" viewBox="0 0 96 95.999999" height="128" preserveAspectRatio="xMidYMid meet" version="1.0"><path fill="#ffffff" d="M 94 96 L 2 96 C 0.894531 96 0 95.105469 0 94 L 0 2 C 0 0.894531 0.894531 0 2 0 L 94 0 C 95.105469 0 96 0.894531 96 2 L 96 94 C 96 95.105469 95.105469 96 94 96 Z M 4 92 L 92 92 L 92 4 L 4 4 Z M 39.148438 88.910156 C 35.855469 88.910156 32.808594 88.125 30.230469 86.585938 C 27.8125 85.128906 25.789062 82.828125 24.382812 79.925781 C 23.9375 79 24.261719 77.886719 25.136719 77.347656 L 32.132812 73.035156 C 32.449219 72.84375 32.808594 72.738281 33.179688 72.738281 C 34.378906 72.738281 34.90625 73.648438 35.222656 74.191406 C 36.171875 75.78125 36.699219 76.457031 37.71875 76.96875 C 37.738281 76.953125 38.28125 77.105469 38.953125 77.101562 C 39.722656 77.101562 40.644531 76.90625 41.046875 76.0625 C 41.460938 75.191406 41.425781 71.804688 41.398438 69.328125 L 41.378906 66.535156 L 41.414062 44.285156 C 41.414062 43.179688 42.3125 42.285156 43.414062 42.285156 L 52.03125 42.285156 C 52.589844 42.285156 53.117188 42.515625 53.496094 42.925781 C 53.875 43.332031 54.066406 43.875 54.023438 44.429688 L 54.023438 52.429688 C 54.035156 57.695312 54.042969 62.949219 54.015625 68.195312 L 54.039062 70.261719 C 54.109375 74.480469 54.171875 78.464844 52.246094 81.972656 C 50.785156 84.960938 47.878906 87.253906 44.105469 88.339844 C 42.410156 88.722656 40.753906 88.910156 39.148438 88.910156 Z M 28.863281 79.753906 C 29.8125 81.207031 30.976562 82.367188 32.285156 83.15625 C 35.179688 84.886719 39.128906 85.371094 43.113281 84.472656 C 44.886719 83.957031 47.410156 82.753906 48.695312 80.136719 C 50.152344 77.472656 50.101562 74.164062 50.035156 70.328125 L 50.011719 68.195312 C 50.042969 62.941406 50.03125 57.695312 50.019531 52.441406 L 50.011719 46.289062 L 45.402344 46.289062 L 45.371094 66.539062 L 45.390625 69.292969 C 45.441406 73.960938 45.425781 76.460938 44.570312 77.9375 C 43.054688 81.113281 39.277344 81.636719 36.238281 80.683594 C 34.363281 79.777344 33.34375 78.667969 32.542969 77.484375 Z M 33.175781 74.953125 L 31.625 75.96875 Z M 33.269531 74.890625 L 33.296875 74.871094 Z M 72.214844 88.507812 C 66.832031 88.507812 61.464844 86.636719 58.242188 83.382812 L 57.394531 82.421875 C 56.378906 81.277344 55.5 80.289062 54.726562 78.523438 C 54.316406 77.589844 54.679688 76.496094 55.5625 75.988281 L 62.578125 71.960938 C 63.5 71.433594 64.664062 71.710938 65.246094 72.59375 C 67.035156 75.300781 68.367188 76.335938 70.738281 76.859375 C 72.761719 77.105469 74.722656 76.710938 75.53125 75.835938 C 75.683594 75.667969 76.144531 75.171875 75.894531 73.875 C 75.527344 72.703125 72.914062 71.605469 70.394531 70.542969 C 67.949219 69.515625 65.175781 68.347656 62.785156 66.558594 C 59.824219 64.566406 57.785156 61.09375 57.277344 57.085938 C 56.773438 53.105469 57.871094 49.246094 60.304688 46.496094 C 61.96875 44.441406 64.746094 42.789062 67.882812 42.023438 L 70.808594 41.644531 C 76.523438 41.511719 80.480469 42.976562 83.410156 46.261719 C 84.210938 47.035156 84.84375 47.9375 85.851562 49.503906 C 86.140625 49.953125 86.234375 50.503906 86.121094 51.023438 C 86.003906 51.542969 85.679688 52 85.222656 52.28125 C 82.476562 53.992188 82.476562 53.992188 78.53125 56.566406 C 78.042969 56.886719 77.449219 56.972656 76.890625 56.816406 C 76.335938 56.65625 75.871094 56.269531 75.628906 55.742188 C 75.054688 54.527344 74.160156 53.675781 73.109375 53.351562 C 72.226562 53.09375 71.175781 53.164062 70.507812 53.550781 C 70.023438 53.832031 69.890625 54.183594 69.835938 54.425781 C 69.746094 54.738281 69.671875 54.980469 69.996094 56.140625 C 70.328125 56.851562 72.21875 57.664062 74.042969 58.453125 C 74.632812 58.703125 75.222656 58.960938 75.804688 59.230469 C 83.640625 62.40625 87.566406 66.28125 88.441406 71.738281 C 88.484375 72 88.472656 72.261719 88.414062 72.503906 C 88.761719 75.46875 88.269531 77.628906 87.914062 78.710938 C 86.59375 83.238281 82.902344 86.496094 77.539062 87.855469 C 75.816406 88.300781 74.011719 88.507812 72.214844 88.507812 Z M 59.285156 78.464844 C 59.59375 78.875 59.949219 79.273438 60.378906 79.765625 L 61.179688 80.675781 C 64.394531 83.910156 71.039062 85.382812 76.550781 83.988281 C 78.832031 83.410156 82.839844 81.808594 84.078125 77.566406 C 84.328125 76.800781 84.796875 74.898438 84.3125 72.152344 C 84.277344 71.933594 84.273438 71.714844 84.308594 71.503906 C 83.648438 68.894531 81.625 65.914062 74.199219 62.902344 C 73.558594 62.609375 73.003906 62.367188 72.457031 62.132812 C 69.921875 61.039062 67.292969 59.90625 66.230469 57.480469 C 65.746094 55.808594 65.585938 54.679688 65.972656 53.398438 C 66.285156 52.054688 67.167969 50.867188 68.5 50.097656 C 70.132812 49.144531 72.285156 48.933594 74.269531 49.527344 C 75.742188 49.984375 77.03125 50.875 78.035156 52.113281 C 79.644531 51.0625 80.339844 50.613281 81.34375 49.984375 C 81.042969 49.578125 80.792969 49.296875 80.511719 49.019531 C 78.269531 46.515625 75.496094 45.515625 71.097656 45.632812 L 68.601562 45.957031 C 66.554688 46.46875 64.511719 47.652344 63.347656 49.085938 C 61.625 51.035156 60.875 53.746094 61.234375 56.585938 C 61.597656 59.40625 63.039062 61.921875 65.09375 63.308594 C 67.171875 64.855469 69.597656 65.878906 71.941406 66.863281 C 75.542969 68.378906 78.953125 69.816406 79.773438 72.902344 C 79.78125 72.941406 79.789062 72.976562 79.796875 73.011719 C 80.363281 75.789062 79.382812 77.558594 78.464844 78.554688 C 76.734375 80.433594 73.660156 81.253906 70.054688 80.804688 C 66.703125 80.066406 64.6875 78.5 62.996094 76.335938 Z M 59.285156 78.464844 " fill-opacity="1" fill-rule="nonzero"/></svg>