<svg xmlns="http://www.w3.org/2000/svg" xmlns:xlink="http://www.w3.org/1999/xlink" width="128" zoomAndPan="magnify" viewBox="0 0 96 95.999999" height="128" preserveAspectRatio="xMidYMid meet" version="1.0"><path fill="#ffffff" d="M 90 42 L 6 42 C 2.6875 42 0 44.683594 0 48 C 0 51.3125 2.6875 54 6 54 L 90 54 C 93.3125 54 96 51.3125 96 48 C 96 44.683594 93.3125 42 90 42 Z M 90 42 " fill-opacity="1" fill-rule="nonzero"/><path fill="#ffffff" d="M 90 70 L 6 70 C 2.6875 70 0 72.683594 0 76 C 0 79.3125 2.6875 82 6 82 L 90 82 C 93.3125 82 96 79.3125 96 76 C 96 72.683594 93.3125 70 90 70 Z M 90 70 " fill-opacity="1" fill-rule="nonzero"/><path fill="#ffffff" d="M 6 26 L 90 26 C 93.3125 26 96 23.3125 96 20 C 96 16.683594 93.3125 14 90 14 L 6 14 C 2.6875 14 0 16.683594 0 20 C 0 23.3125 2.6875 26 6 26 Z M 6 26 " fill-opacity="1" fill-rule="nonzero"/></svg>